<svg width="12" height="15" viewBox="0 0 12 15" fill="none" xmlns="http://www.w3.org/2000/svg">
<path d="M8.37036 9.72222H1.85184V11.9444H4.8148V14.1667H7.18517V11.9444H8.37036C9.15619 11.9444 9.90983 11.6518 10.4655 11.1309C11.0212 10.6099 11.3333 9.90338 11.3333 9.16667C11.3333 8.42995 11.0212 7.72341 10.4655 7.20248C9.90983 6.68155 9.15619 6.38889 8.37036 6.38889H3.62962C3.47245 6.38889 3.32173 6.33036 3.21059 6.22617C3.09946 6.12198 3.03703 5.98068 3.03703 5.83333C3.03703 5.68599 3.09946 5.54468 3.21059 5.4405C3.32173 5.33631 3.47245 5.27778 3.62962 5.27778H10.1481V3.05556H7.18517V0.833333H4.8148V3.05556H3.62962C2.84379 3.05556 2.09015 3.34821 1.53449 3.86915C0.978825 4.39008 0.666656 5.09662 0.666656 5.83333C0.666656 6.57004 0.978825 7.27658 1.53449 7.79752C2.09015 8.31845 2.84379 8.61111 3.62962 8.61111H8.37036C8.52752 8.61111 8.67825 8.66964 8.78939 8.77383C8.90052 8.87802 8.96295 9.01932 8.96295 9.16667C8.96295 9.31401 8.90052 9.45532 8.78939 9.5595C8.67825 9.66369 8.52752 9.72222 8.37036 9.72222Z" fill="white"/>
</svg>
