<svg width="46" height="38" viewBox="0 0 46 38" fill="none" xmlns="http://www.w3.org/2000/svg">
<path d="M16.66 19H21C23.3869 19 25.6761 19.9482 27.364 21.636C29.0518 23.3239 30 25.6131 30 28H15.998L16 30H32V28C31.9937 25.8719 31.3788 23.7901 30.228 22H36C37.8905 21.9995 39.7425 22.5349 41.3411 23.5441C42.9397 24.5533 44.2195 25.995 45.032 27.702C40.302 33.944 32.644 38 24 38C18.478 38 13.8 36.82 10 34.75V16.142C12.4332 16.4906 14.7309 17.4766 16.66 19ZM8 34C8 34.5304 7.78929 35.0391 7.41421 35.4142C7.03914 35.7893 6.53043 36 6 36H2C1.46957 36 0.960859 35.7893 0.585786 35.4142C0.210714 35.0391 0 34.5304 0 34V16C0 15.4696 0.210714 14.9609 0.585786 14.5858C0.960859 14.2107 1.46957 14 2 14H6C6.53043 14 7.03914 14.2107 7.41421 14.5858C7.78929 14.9609 8 15.4696 8 16V34ZM34 6C35.5913 6 37.1174 6.63214 38.2426 7.75736C39.3679 8.88258 40 10.4087 40 12C40 13.5913 39.3679 15.1174 38.2426 16.2426C37.1174 17.3679 35.5913 18 34 18C32.4087 18 30.8826 17.3679 29.7574 16.2426C28.6321 15.1174 28 13.5913 28 12C28 10.4087 28.6321 8.88258 29.7574 7.75736C30.8826 6.63214 32.4087 6 34 6ZM20 0C21.5913 0 23.1174 0.632141 24.2426 1.75736C25.3679 2.88258 26 4.4087 26 6C26 7.5913 25.3679 9.11742 24.2426 10.2426C23.1174 11.3679 21.5913 12 20 12C18.4087 12 16.8826 11.3679 15.7574 10.2426C14.6321 9.11742 14 7.5913 14 6C14 4.4087 14.6321 2.88258 15.7574 1.75736C16.8826 0.632141 18.4087 0 20 0Z" fill="#323131"/>
</svg>
