<svg width="40" height="40" viewBox="0 0 40 40" fill="none" xmlns="http://www.w3.org/2000/svg">
<path d="M20 40C8.954 40 0 31.046 0 20C0 8.954 8.954 0 20 0C31.046 0 40 8.954 40 20C40 31.046 31.046 40 20 40ZM10 20C10 22.6522 11.0536 25.1957 12.9289 27.0711C14.8043 28.9464 17.3478 30 20 30C22.6522 30 25.1957 28.9464 27.0711 27.0711C28.9464 25.1957 30 22.6522 30 20H26C26 21.5913 25.3679 23.1174 24.2426 24.2426C23.1174 25.3679 21.5913 26 20 26C18.4087 26 16.8826 25.3679 15.7574 24.2426C14.6321 23.1174 14 21.5913 14 20H10Z" fill="#323131"/>
</svg>
