<svg width="42" height="38" viewBox="0 0 42 38" fill="none" xmlns="http://www.w3.org/2000/svg">
<path d="M23 0V2.556L33 5.892L40.264 3.472L41.53 7.264L35.466 9.286L41.658 26.31C39.474 28.584 36.4 30 33 30C29.598 30 26.526 28.584 24.342 26.31L30.53 9.286L23 6.774V34H31V38H11V34H19V6.774L11.464 9.286L17.656 26.31C15.474 28.584 12.4 30 9.00001 30C5.59801 30 2.52601 28.584 0.34201 26.31L6.53001 9.286L0.470011 7.266L1.73601 3.47L9.00001 5.89L19 2.556V0H23ZM33 14.206L30.164 22H35.834L33 14.206ZM9.00001 14.206L6.16401 22H11.834L9.00001 14.206Z" fill="#323131"/>
</svg>
