<svg width="18" height="18" viewBox="0 0 18 18" fill="none" xmlns="http://www.w3.org/2000/svg">
<path d="M9.00002 17.3333C4.39752 17.3333 0.666687 13.6025 0.666687 8.99999C0.666687 4.39749 4.39752 0.666656 9.00002 0.666656C13.6025 0.666656 17.3334 4.39749 17.3334 8.99999C17.3334 13.6025 13.6025 17.3333 9.00002 17.3333ZM7.09169 15.3892C6.26953 13.6453 5.79325 11.7585 5.68919 9.83332H2.38502C2.54718 11.1157 3.07829 12.3235 3.91383 13.3097C4.74937 14.296 5.85336 15.0184 7.09169 15.3892ZM7.35835 9.83332C7.48419 11.8658 8.06502 13.775 9.00002 15.46C9.96029 13.7304 10.5212 11.8079 10.6417 9.83332H7.35835ZM15.615 9.83332H12.3109C12.2068 11.7585 11.7305 13.6453 10.9084 15.3892C12.1467 15.0184 13.2507 14.296 14.0862 13.3097C14.9218 12.3235 15.4529 11.1157 15.615 9.83332ZM2.38502 8.16666H5.68919C5.79325 6.24148 6.26953 4.35473 7.09169 2.61082C5.85336 2.98156 4.74937 3.70395 3.91383 4.69024C3.07829 5.67652 2.54718 6.88424 2.38502 8.16666ZM7.35919 8.16666H10.6409C10.5206 6.19216 9.96 4.2696 9.00002 2.53999C8.03975 4.26953 7.47882 6.19209 7.35835 8.16666H7.35919ZM10.9084 2.61082C11.7305 4.35473 12.2068 6.24148 12.3109 8.16666H15.615C15.4529 6.88424 14.9218 5.67652 14.0862 4.69024C13.2507 3.70395 12.1467 2.98156 10.9084 2.61082Z" fill="#323131"/>
</svg>
